<svg xmlns="http://www.w3.org/2000/svg" xmlns:xlink="http://www.w3.org/1999/xlink" width="500" height="500" viewBox="0 0 500 500">
  <defs>
    <clipPath id="clip-path">
      <path id="Caminho_32" data-name="Caminho 32" d="M366.864,219.8s-4.733,4.1-6.626,8.833-1.577,9.465-6.309,11.042-7.572,0-7.572,0,3.786-9.464,5.994-12.619S366.864,219.8,366.864,219.8Z" fill="none" stroke="#263238" stroke-linecap="round" stroke-linejoin="round" stroke-width="1"/>
    </clipPath>
    <clipPath id="clip-path-2">
      <path id="Caminho_41" data-name="Caminho 41" d="M355.385,80.561s-11.867,30.71-16.6,39.228-10.726,11.042-17.667,13.882-26.5,15.143-28.394,19.875-4.1,18.93-5.994,23.662-5.679,7.256-11.358,8.834-11.673,2.523-10.726,5.363,10.1,4.732,19.245,3.47,12.619-3.786,15.458-7.571,7.572-11.989,9.465-12.936l1.893-.946s-.315,33.757.315,37.858-2.839,18.3-9.78,35.335-1.893,28.394.316,30.6,6.625,2.209,7.572,1.262.315-13.566,2.208-21.768,12.935-29.972,16.09-34.388a115.047,115.047,0,0,0,6.625-11.043,136.951,136.951,0,0,1-7.887,29.972c-6.31,16.405-12.935,27.132-14.2,31.864s3.47,7.572,6.31,6.31,8.833-13.882,11.042-18.3,8.518-15.144,8.518-15.144a10.111,10.111,0,0,0,9.149-3.786c3.786-4.732,9.78-14.512,9.78-14.512s8.834-4.732,10.1-7.887,3.47-33.757,5.363-44.484,7.256-33.757,10.1-42.906,23.54-48.693,23.54-48.693" fill="#fff" stroke="#263238" stroke-linecap="round" stroke-linejoin="round" stroke-width="1"/>
    </clipPath>
    <clipPath id="clip-path-3">
      <path id="Caminho_56" data-name="Caminho 56" d="M168.386,82.974s10.763,38.393,12.971,43.125,14.2,12.3,16.406,22.715,5.047,14.828,7.571,22.715,4.733,7.887.947,14.513-4.417,10.726-1.893,14.827,15.459,9.465,13.881,12.62-3.155,4.1-4.417,4.1H212.59s2.84,10.411,1.262,14.2-5.363,6.31-6.625,4.417-3.47-4.732-3.47-4.732,2.524,5.048-.631,5.678-3.786-.315-8.518-2.523-15.459-4.417-15.459-4.417-12.62,5.048-16.721,6.31-9.149-.316-9.149-.316-13.566,5.363-15.775.946-3.785-22.715-4.732-26.185-4.1-6.31-3.47-11.673,2.208-8.518,2.524-10.727,8.518-42.275,8.518-51.108-15.459-53-15.459-53" fill="#fff" stroke="#263238" stroke-linecap="round" stroke-linejoin="round" stroke-width="1"/>
    </clipPath>
    <clipPath id="clip-Artboard_1">
      <rect width="500" height="500"/>
    </clipPath>
  </defs>
  <g id="Artboard_1" data-name="Artboard 1" clip-path="url(#clip-Artboard_1)">
    <rect width="500" height="500" fill="#fff"/>
    <g id="Background_Simple" data-name="Background Simple">
      <g id="Grupo_5" data-name="Grupo 5">
        <path id="Caminho_9" data-name="Caminho 9" d="M106.655,396.3s43.071,48.553,111.811,46.695S346.127,394.841,394.849,358.6s62.138-92.966,34.232-137.523-72.887-26.189-129.838-55.381-67.688-45.611-131.4-39.047S55.172,204.475,61.878,280.8,106.655,396.3,106.655,396.3Z" fill="#c6ff00"/>
        <path id="Caminho_10" data-name="Caminho 10" d="M106.655,396.3s43.071,48.553,111.811,46.695S346.127,394.841,394.849,358.6s62.138-92.966,34.232-137.523-72.887-26.189-129.838-55.381-67.688-45.611-131.4-39.047S55.172,204.475,61.878,280.8,106.655,396.3,106.655,396.3Z" fill="#fff" opacity="0.7"/>
      </g>
    </g>
    <g id="Device">
      <g id="Grupo_6" data-name="Grupo 6">
        <rect id="Retângulo_14" data-name="Retângulo 14" width="148.279" height="70.038" rx="5.485" transform="translate(325.001 184.333) rotate(90)" opacity="0.2"/>
        <rect id="Retângulo_15" data-name="Retângulo 15" width="148.279" height="70.038" rx="5.485" transform="translate(322.065 182.571) rotate(90)" fill="#b5b5b5" stroke="#263238" stroke-linecap="round" stroke-linejoin="round" stroke-width="1"/>
        <path id="Caminho_11" data-name="Caminho 11" d="M316.579,182.571H257.512a5.486,5.486,0,0,0-5.486,5.485V191.4h70.039v-3.349A5.486,5.486,0,0,0,316.579,182.571Z" fill="#c6ff00" stroke="#263238" stroke-linecap="round" stroke-linejoin="round" stroke-width="1"/>
        <rect id="Retângulo_16" data-name="Retângulo 16" width="44.799" height="73.193" transform="translate(256.128 198.661)" fill="#263238" stroke="#263238" stroke-linecap="round" stroke-linejoin="round" stroke-width="1"/>
        <path id="Caminho_12" data-name="Caminho 12" d="M252.026,322.963v2.4a5.486,5.486,0,0,0,5.486,5.485h59.067a5.486,5.486,0,0,0,5.486-5.485v-2.4Z" fill="#c6ff00" stroke="#263238" stroke-linecap="round" stroke-linejoin="round" stroke-width="1"/>
        <rect id="Retângulo_17" data-name="Retângulo 17" width="13.881" height="15.143" transform="translate(282.944 307.82)" fill="none" stroke="#263238" stroke-linecap="round" stroke-linejoin="round" stroke-width="1"/>
        <path id="Caminho_13" data-name="Caminho 13" d="M293.671,307.82a4.1,4.1,0,1,0-4.1,4.1A4.1,4.1,0,0,0,293.671,307.82Z" fill="none" stroke="#263238" stroke-linecap="round" stroke-linejoin="round" stroke-width="1"/>
        <line id="Linha_2" data-name="Linha 2" y1="31.864" transform="translate(288.307 271.854)" fill="#fff" stroke="#263238" stroke-linecap="round" stroke-linejoin="round" stroke-width="1"/>
        <rect id="Retângulo_18" data-name="Retângulo 18" width="12.935" height="16.405" transform="translate(256.128 281.319)" fill="none" stroke="#263238" stroke-linecap="round" stroke-linejoin="round" stroke-width="1"/>
        <rect id="Retângulo_19" data-name="Retângulo 19" width="12.619" height="7.887" transform="translate(289.885 322.963)" fill="#263238" stroke="#263238" stroke-linecap="round" stroke-linejoin="round" stroke-width="1"/>
        <path id="Caminho_14" data-name="Caminho 14" d="M286.9,214.894h-6.712l-7.852,18.167H278l-6.667,17.833,15.333-22.5h-6Z" fill="#c6ff00"/>
      </g>
      <g id="Grupo_7" data-name="Grupo 7">
        <path id="Caminho_15" data-name="Caminho 15" d="M161.552,341.344h10.289v70.038H161.552a5.485,5.485,0,0,1-5.485-5.485V346.829A5.485,5.485,0,0,1,161.552,341.344Z" opacity="0.2"/>
        <path id="Caminho_16" data-name="Caminho 16" d="M159.711,339.809H170v70.038H159.711a5.486,5.486,0,0,1-5.486-5.485V345.294A5.486,5.486,0,0,1,159.711,339.809Z" fill="#c6ff00" stroke="#263238" stroke-linecap="round" stroke-linejoin="round" stroke-width="1"/>
      </g>
      <g id="Grupo_8" data-name="Grupo 8">
        <path id="Caminho_17" data-name="Caminho 17" d="M361.861,341.571H351.572v30.137a5.994,5.994,0,1,1,0,9.764v30.137h10.289a5.485,5.485,0,0,0,5.485-5.485V347.056A5.485,5.485,0,0,0,361.861,341.571Z" opacity="0.2"/>
        <path id="Caminho_18" data-name="Caminho 18" d="M360.1,339.809h-10.29v30.137a5.994,5.994,0,1,1,0,9.764v30.137H360.1a5.485,5.485,0,0,0,5.485-5.485V345.294A5.485,5.485,0,0,0,360.1,339.809Z" fill="#c6ff00" stroke="#263238" stroke-linecap="round" stroke-linejoin="round" stroke-width="1"/>
      </g>
      <g id="Grupo_9" data-name="Grupo 9">
        <rect id="Retângulo_20" data-name="Retângulo 20" width="148.279" height="70.038" rx="5.485" transform="translate(188.352 342.158)" opacity="0.2"/>
        <rect id="Retângulo_21" data-name="Retângulo 21" width="148.279" height="70.038" rx="5.485" transform="translate(184.828 339.809)" fill="#263238" stroke="#263238" stroke-linecap="round" stroke-linejoin="round" stroke-width="1"/>
        <rect id="Retângulo_22" data-name="Retângulo 22" width="144.861" height="66.902" rx="5.485" transform="translate(186.536 341.377)" fill="#c6ff00" stroke="#263238" stroke-linecap="round" stroke-linejoin="round" stroke-width="1"/>
        <path id="Retângulo_23" data-name="Retângulo 23" d="M5.911,0h98.831a0,0,0,0,1,0,0V62.466a0,0,0,0,1,0,0H5.911A5.911,5.911,0,0,1,0,56.555V5.911A5.911,5.911,0,0,1,5.911,0Z" transform="translate(191.137 343.91)" fill="#b5b5b5" stroke="#263238" stroke-linecap="round" stroke-linejoin="round" stroke-width="1"/>
        <circle id="Elipse_2" data-name="Elipse 2" cx="4.101" cy="4.101" r="4.101" transform="translate(319.856 370.411)" fill="#263238" stroke="#263238" stroke-linecap="round" stroke-linejoin="round" stroke-width="1"/>
        <rect id="Retângulo_24" data-name="Retângulo 24" width="2.839" height="11.988" transform="translate(299.034 394.388)" fill="none" stroke="#263238" stroke-linecap="round" stroke-linejoin="round" stroke-width="1"/>
        <rect id="Retângulo_25" data-name="Retângulo 25" width="2.839" height="11.989" transform="translate(299.034 376.09)" fill="none" stroke="#263238" stroke-linecap="round" stroke-linejoin="round" stroke-width="1"/>
      </g>
      <path id="Caminho_19" data-name="Caminho 19" d="M221.629,280.319H193.584V278.8a1.5,1.5,0,0,0-3,0v23.977a1.5,1.5,0,0,0,3,0v-2.155h28.045a3.639,3.639,0,0,0,3.635-3.634v-13.03A3.639,3.639,0,0,0,221.629,280.319Zm-28.045,2h18.953v16.3H193.584Zm29.68,14.664a1.637,1.637,0,0,1-1.635,1.634h-7.092v-16.3h7.092a1.637,1.637,0,0,1,1.635,1.634Z" fill="#263238"/>
      <g id="Grupo_11" data-name="Grupo 11">
        <path id="Caminho_20" data-name="Caminho 20" d="M205.076,247.562h-11.73v24.923h20.507V255.607Z" fill="#c6ff00" stroke="#263238" stroke-linecap="round" stroke-linejoin="round" stroke-width="1"/>
        <g id="Grupo_10" data-name="Grupo 10">
          <rect id="Retângulo_26" data-name="Retângulo 26" width="12.456" height="13.939" rx="2.514" transform="translate(196.493 254.913)" fill="#fff" stroke="#263238" stroke-linecap="round" stroke-linejoin="round" stroke-width="1"/>
          <line id="Linha_3" data-name="Linha 3" y2="13.701" transform="translate(202.597 255.162)" fill="none" stroke="#263238" stroke-linecap="round" stroke-linejoin="round" stroke-width="1"/>
          <line id="Linha_4" data-name="Linha 4" x2="12.331" transform="translate(196.493 262.137)" fill="none" stroke="#263238" stroke-linecap="round" stroke-linejoin="round" stroke-width="1"/>
          <path id="Caminho_21" data-name="Caminho 21" d="M199.483,268.738v-3.106a3.121,3.121,0,0,1,3.121-3.121h.11a3.121,3.121,0,0,1,3.121,3.121v3.22" fill="none" stroke="#263238" stroke-linecap="round" stroke-linejoin="round" stroke-width="1"/>
          <path id="Caminho_22" data-name="Caminho 22" d="M205.835,255.63v3.107a3.121,3.121,0,0,1-3.121,3.121h-.11a3.121,3.121,0,0,1-3.121-3.121v-3.22" fill="none" stroke="#263238" stroke-linecap="round" stroke-linejoin="round" stroke-width="1"/>
        </g>
      </g>
    </g>
    <g id="Tool_2" data-name="Tool 2">
      <g id="Grupo_13" data-name="Grupo 13">
        <path id="Caminho_23" data-name="Caminho 23" d="M401.36,231.733a.5.5,0,0,0-.5-.5H381.033a.5.5,0,0,0-.5.5V246.4a.5.5,0,0,0,.144.35l4.131,50.614a.478.478,0,0,0,.009.066v52.326a.491.491,0,0,0,.188.381l2.762,17.112a.5.5,0,0,0,.493.42H389l.668,38.259a1.263,1.263,0,0,0,2.526,0l.667-38.26h.773a.5.5,0,0,0,.493-.42l2.761-17.111a.493.493,0,0,0,.188-.382V297.428a.493.493,0,0,0,.01-.067l4.131-50.616a.5.5,0,0,0,.142-.348Z" opacity="0.2"/>
        <g id="Grupo_12" data-name="Grupo 12">
          <path id="Caminho_24" data-name="Caminho 24" d="M388.392,406.666h0a.763.763,0,0,1-.763-.749l-.737-42.251h3l-.737,42.251A.762.762,0,0,1,388.392,406.666Z" fill="#fff" stroke="#263238" stroke-miterlimit="10" stroke-width="1"/>
          <path id="Caminho_25" data-name="Caminho 25" d="M398.2,246.439H378.613l4.153,50.881h.012v52.432h11.259V297.32h.012Z" fill="#263238" stroke="#263238" stroke-linecap="round" stroke-linejoin="round" stroke-width="1"/>
          <rect id="Retângulo_27" data-name="Retângulo 27" width="19.827" height="14.663" transform="translate(378.494 231.734)" fill="#c6ff00" stroke="#263238" stroke-linecap="round" stroke-linejoin="round" stroke-width="1"/>
          <path id="Caminho_26" data-name="Caminho 26" d="M391.095,367.166H385.72l-2.8-17.336h10.97Z" fill="#c6ff00" stroke="#263238" stroke-linecap="round" stroke-linejoin="round" stroke-width="1"/>
        </g>
      </g>
    </g>
    <g id="Tool_1" data-name="Tool 1">
      <g id="Grupo_14" data-name="Grupo 14">
        <path id="Caminho_27" data-name="Caminho 27" d="M134.819,247a.5.5,0,0,0-.146-.332.869.869,0,0,0-.987-.265c-1.437.595-1.578,6.614-1.592,22.392-.009,9.526-.019,20.324-.772,27.424a374.726,374.726,0,0,1-10.983,55.663,77.538,77.538,0,0,0-2.461,11.088,77.425,77.425,0,0,0-2.462-11.088,374.723,374.723,0,0,1-10.982-55.663c-.753-7.1-.763-17.9-.772-27.424-.014-15.778-.155-21.8-1.593-22.392a.868.868,0,0,0-.986.265.5.5,0,0,0-.146.332c-.022.51-2.21,51.3,1.507,72.607,1.657,9.5,3.517,19.082,5.315,28.345,2.258,11.63,4.207,21.674,5.182,28.639,1.384,9.882,1.359,22.388,1.284,27.306a2.337,2.337,0,0,0,2.344,2.374h2.617a2.339,2.339,0,0,0,2.345-2.374c-.075-4.917-.1-17.421,1.283-27.306.976-6.965,2.925-17.009,5.183-28.639,1.8-9.263,3.658-18.843,5.315-28.345C137.028,298.3,134.841,247.511,134.819,247ZM117.878,371.747q.053.21.1.357l-.1.081-.1-.081Q117.825,371.957,117.878,371.747Z" opacity="0.2"/>
        <path id="Caminho_28" data-name="Caminho 28" d="M132.133,247.281c-3-3-.75,32.75-2.5,49.25a372.768,372.768,0,0,1-11,55.75c-4.5,15.5-2.25,20.25-2.25,20.25s-.3.228-.692.563c-.4-.335-.691-.563-.691-.563s2.25-4.75-2.25-20.25a372.769,372.769,0,0,1-11-55.75c-1.75-16.5.5-52.25-2.5-49.25,0,0-2.25,51,1.5,72.5s8.75,44.5,10.5,57c1.4,9.983,1.36,22.676,1.288,27.384a1.84,1.84,0,0,0,1.845,1.866H117a1.839,1.839,0,0,0,1.844-1.866c-.071-4.708-.109-17.4,1.289-27.384,1.75-12.5,6.75-35.5,10.5-57S132.133,247.281,132.133,247.281Z" fill="#263238" stroke="#263238" stroke-linecap="round" stroke-linejoin="round" stroke-width="1"/>
      </g>
    </g>
    <g id="Hand_2" data-name="Hand 2">
      <g id="Grupo_22" data-name="Grupo 22">
        <path id="Caminho_29" data-name="Caminho 29" d="M383.338,139.319a555.587,555.587,0,0,1,17.894-53.171l-40.847-1.587s-11.867,30.71-16.6,39.228-10.726,11.042-17.667,13.882-26.5,15.143-28.394,19.875-4.1,18.93-5.994,23.662-5.679,7.256-11.358,8.834c-1.114.309-2.238.594-3.322.874l-.075.02q-.546.141-1.072.281c-.193.052-.386.1-.574.155l-.365.1q-.262.073-.518.148l-.353.105c-.176.053-.347.107-.517.162-.1.031-.2.063-.295.095-.254.084-.5.17-.735.258-.046.018-.087.036-.132.053q-.285.109-.548.224c-.077.034-.148.068-.222.1q-.206.1-.4.195c-.071.037-.141.075-.209.113-.123.07-.236.142-.346.215-.053.035-.109.069-.159.1a3.5,3.5,0,0,0-.406.338c-.012.011-.019.024-.031.036a2.309,2.309,0,0,0-.269.329c-.027.041-.047.084-.071.126a1.737,1.737,0,0,0-.123.272c-.016.049-.03.1-.041.148a1.538,1.538,0,0,0-.035.3c0,.047-.006.093,0,.14a1.863,1.863,0,0,0,.09.469c.946,2.839,10.1,4.732,19.245,3.47s12.619-3.786,15.458-7.571,7.572-11.989,9.465-12.936l1.893-.946s-.315,33.757.316,37.858-2.84,18.3-9.781,35.335a43.858,43.858,0,0,0-3.524,17.168v.079a32.213,32.213,0,0,0,.31,4.026l0,.03a27.57,27.57,0,0,0,.7,3.393l0,.016q.135.489.279.942l.018.055c.2.617.408,1.184.623,1.7l.018.042q.146.341.291.65c.019.042.039.082.058.123.092.19.183.372.275.543l.04.078c.105.194.21.376.313.545l.032.051c.088.141.173.272.258.395.028.041.056.08.084.119.069.1.136.185.2.268l.078.1c.088.105.174.2.255.283,2.208,2.209,6.625,2.209,7.572,1.262s.315-13.566,2.208-21.768,12.935-29.972,16.09-34.388a115.047,115.047,0,0,0,6.625-11.043,136.951,136.951,0,0,1-7.887,29.972c-6.31,16.405-12.935,27.132-14.2,31.864s3.47,7.572,6.31,6.31,8.833-13.882,11.042-18.3,8.518-15.144,8.518-15.144a10.111,10.111,0,0,0,9.149-3.786c.46-.575.953-1.225,1.463-1.922a11.927,11.927,0,0,0,5.478-.6c4.732-1.577,4.417-6.309,6.31-11.042a20.941,20.941,0,0,1,3.179-5.185,10.918,10.918,0,0,0,3.446-3.648c.932-2.332,2.382-19.649,3.839-32.861A213.091,213.091,0,0,1,383.338,139.319Z" opacity="0.2"/>
        <g id="Grupo_21" data-name="Grupo 21">
          <g id="Grupo_16" data-name="Grupo 16">
            <g id="Grupo_15" data-name="Grupo 15" clip-path="url(#clip-path)">
              <path id="Caminho_30" data-name="Caminho 30" d="M366.864,219.8s-4.733,4.1-6.626,8.833-1.577,9.465-6.309,11.042-7.572,0-7.572,0,3.786-9.464,5.994-12.619S366.864,219.8,366.864,219.8Z" fill="#c6ff00"/>
              <path id="Caminho_31" data-name="Caminho 31" d="M366.864,219.8s-4.733,4.1-6.626,8.833-1.577,9.465-6.309,11.042-7.572,0-7.572,0,3.786-9.464,5.994-12.619S366.864,219.8,366.864,219.8Z" fill="#fff" opacity="0.5"/>
            </g>
            <path id="Caminho_33" data-name="Caminho 33" d="M366.864,219.8s-4.733,4.1-6.626,8.833-1.577,9.465-6.309,11.042-7.572,0-7.572,0,3.786-9.464,5.994-12.619S366.864,219.8,366.864,219.8Z" fill="none" stroke="#263238" stroke-linecap="round" stroke-linejoin="round" stroke-width="1"/>
          </g>
          <g id="Grupo_20" data-name="Grupo 20">
            <path id="Caminho_34" data-name="Caminho 34" d="M355.385,80.561s-11.867,30.71-16.6,39.228-10.726,11.042-17.667,13.882-26.5,15.143-28.394,19.875-4.1,18.93-5.994,23.662-5.679,7.256-11.358,8.834-11.673,2.523-10.726,5.363,10.1,4.732,19.245,3.47,12.619-3.786,15.458-7.571,7.572-11.989,9.465-12.936l1.893-.946s-.315,33.757.315,37.858-2.839,18.3-9.78,35.335-1.893,28.394.316,30.6,6.625,2.209,7.572,1.262.315-13.566,2.208-21.768,12.935-29.972,16.09-34.388a115.047,115.047,0,0,0,6.625-11.043,136.951,136.951,0,0,1-7.887,29.972c-6.31,16.405-12.935,27.132-14.2,31.864s3.47,7.572,6.31,6.31,8.833-13.882,11.042-18.3,8.518-15.144,8.518-15.144a10.111,10.111,0,0,0,9.149-3.786c3.786-4.732,9.78-14.512,9.78-14.512s8.834-4.732,10.1-7.887,3.47-33.757,5.363-44.484,7.256-33.757,10.1-42.906,23.54-48.693,23.54-48.693" fill="#fff"/>
            <g id="Grupo_19" data-name="Grupo 19" clip-path="url(#clip-path-2)">
              <g id="Grupo_17" data-name="Grupo 17">
                <path id="Caminho_35" data-name="Caminho 35" d="M299.349,187.3c2.84-3.786,7.572-11.989,9.465-12.936l1.893-.946S306,164.333,301.333,171,290,187.667,284,188.333c-4.155.462-7.991-.674-11.95-1.417-4.439,1.147-8.165,2.206-7.4,4.489.946,2.839,10.1,4.732,19.245,3.47S296.51,191.089,299.349,187.3Z" fill="#c6ff00"/>
                <path id="Caminho_36" data-name="Caminho 36" d="M297.727,262.326c-.223,8.178,2.4,13.459,3.831,14.891,2.208,2.209,6.625,2.209,7.572,1.262s.315-13.566,2.208-21.768,12.935-29.972,16.09-34.388a115.047,115.047,0,0,0,6.625-11.043S326.667,225,318.667,233C311.579,240.087,301.359,247.7,297.727,262.326Z" fill="#c6ff00"/>
                <path id="Caminho_37" data-name="Caminho 37" d="M392.667,109.667a302.8,302.8,0,0,1-21.334,32c-14,18.666-14.666,42-16.666,52s-.667,19.333-8,30-12,19.333-12,19.333l-.614-31.72a136.951,136.951,0,0,1-7.887,29.972c-6.31,16.405-12.935,27.132-14.2,31.864s3.47,7.572,6.31,6.31,8.833-13.882,11.042-18.3,8.518-15.144,8.518-15.144a10.111,10.111,0,0,0,9.149-3.786c3.786-4.732,9.78-14.512,9.78-14.512s8.834-4.732,10.1-7.887,3.47-33.757,5.363-44.484,7.256-33.757,10.1-42.906c1.313-4.233,5.868-13.663,10.383-22.577Z" fill="#c6ff00"/>
              </g>
              <g id="Grupo_18" data-name="Grupo 18" opacity="0.5">
                <path id="Caminho_38" data-name="Caminho 38" d="M299.349,187.3c2.84-3.786,7.572-11.989,9.465-12.936l1.893-.946S306,164.333,301.333,171,290,187.667,284,188.333c-4.155.462-7.991-.674-11.95-1.417-4.439,1.147-8.165,2.206-7.4,4.489.946,2.839,10.1,4.732,19.245,3.47S296.51,191.089,299.349,187.3Z" fill="#fff"/>
                <path id="Caminho_39" data-name="Caminho 39" d="M297.727,262.326c-.223,8.178,2.4,13.459,3.831,14.891,2.208,2.209,6.625,2.209,7.572,1.262s.315-13.566,2.208-21.768,12.935-29.972,16.09-34.388a115.047,115.047,0,0,0,6.625-11.043S326.667,225,318.667,233C311.579,240.087,301.359,247.7,297.727,262.326Z" fill="#fff"/>
                <path id="Caminho_40" data-name="Caminho 40" d="M392.667,109.667a302.8,302.8,0,0,1-21.334,32c-14,18.666-14.666,42-16.666,52s-.667,19.333-8,30-12,19.333-12,19.333l-.614-31.72a136.951,136.951,0,0,1-7.887,29.972c-6.31,16.405-12.935,27.132-14.2,31.864s3.47,7.572,6.31,6.31,8.833-13.882,11.042-18.3,8.518-15.144,8.518-15.144a10.111,10.111,0,0,0,9.149-3.786c3.786-4.732,9.78-14.512,9.78-14.512s8.834-4.732,10.1-7.887,3.47-33.757,5.363-44.484,7.256-33.757,10.1-42.906c1.313-4.233,5.868-13.663,10.383-22.577Z" fill="#fff"/>
              </g>
            </g>
            <path id="Caminho_42" data-name="Caminho 42" d="M355.385,80.561s-11.867,30.71-16.6,39.228-10.726,11.042-17.667,13.882-26.5,15.143-28.394,19.875-4.1,18.93-5.994,23.662-5.679,7.256-11.358,8.834-11.673,2.523-10.726,5.363,10.1,4.732,19.245,3.47,12.619-3.786,15.458-7.571,7.572-11.989,9.465-12.936l1.893-.946s-.315,33.757.315,37.858-2.839,18.3-9.78,35.335-1.893,28.394.316,30.6,6.625,2.209,7.572,1.262.315-13.566,2.208-21.768,12.935-29.972,16.09-34.388a115.047,115.047,0,0,0,6.625-11.043,136.951,136.951,0,0,1-7.887,29.972c-6.31,16.405-12.935,27.132-14.2,31.864s3.47,7.572,6.31,6.31,8.833-13.882,11.042-18.3,8.518-15.144,8.518-15.144a10.111,10.111,0,0,0,9.149-3.786c3.786-4.732,9.78-14.512,9.78-14.512s8.834-4.732,10.1-7.887,3.47-33.757,5.363-44.484,7.256-33.757,10.1-42.906,23.54-48.693,23.54-48.693" fill="none" stroke="#263238" stroke-linecap="round" stroke-linejoin="round" stroke-width="1"/>
          </g>
          <path id="Caminho_43" data-name="Caminho 43" d="M336,206.333s2.667-1.333,3.333-6a68.6,68.6,0,0,0,.667-8.666" fill="none" stroke="#263238" stroke-linecap="round" stroke-linejoin="round" stroke-width="1"/>
          <path id="Caminho_44" data-name="Caminho 44" d="M337.839,245.984s9.78-17.667,11.357-18.614,6.626-3.786,6.941-8.2.631-9.78.631-9.78" fill="none" stroke="#263238" stroke-linecap="round" stroke-linejoin="round" stroke-width="1"/>
        </g>
      </g>
    </g>
    <g id="Hand_1" data-name="Hand 1">
      <g id="Grupo_27" data-name="Grupo 27">
        <g id="Grupo_23" data-name="Grupo 23">
          <path id="Caminho_45" data-name="Caminho 45" d="M168.386,82.974s10.763,38.393,12.971,43.125,14.2,12.3,16.406,22.715,5.047,14.828,7.571,22.715,4.733,7.887.947,14.513-4.417,10.726-1.893,14.827,15.459,9.465,13.881,12.62-3.155,4.1-4.417,4.1H212.59s2.84,10.411,1.262,14.2-5.363,6.31-6.625,4.417-3.47-4.732-3.47-4.732,2.524,5.048-.631,5.678-3.786-.315-8.518-2.523-15.459-4.417-15.459-4.417-12.62,5.048-16.721,6.31-9.149-.316-9.149-.316-13.566,5.363-15.775.946-3.785-22.715-4.732-26.185-4.1-6.31-3.47-11.673,2.208-8.518,2.524-10.727,8.518-42.275,8.518-51.108-15.459-53-15.459-53" fill="#fff" stroke="#263238" stroke-linecap="round" stroke-linejoin="round" stroke-width="1"/>
          <path id="Caminho_46" data-name="Caminho 46" d="M181.988,162.065s5.048,21.137,7.887,28.393,5.679,14.828,8.834,17.668,12.619,7.887,13.881,9.464" fill="none" stroke="#263238" stroke-linecap="round" stroke-linejoin="round" stroke-width="1"/>
          <path id="Caminho_47" data-name="Caminho 47" d="M160.22,185.726s20.191,29.025,23.03,33.442,11.358,4.416,13.566,6.309,6.941,5.995,6.941,5.995" fill="none" stroke="#263238" stroke-linecap="round" stroke-linejoin="round" stroke-width="1"/>
          <path id="Caminho_48" data-name="Caminho 48" d="M140.975,193.929s8.518,10.411,15.459,20.822,7.571,12.935,11.042,13.881,11.673,1.578,11.673,1.578" fill="none" stroke="#263238" stroke-linecap="round" stroke-linejoin="round" stroke-width="1"/>
          <path id="Caminho_49" data-name="Caminho 49" d="M134.35,210.019s14.512,19.56,15.774,22.4a7.805,7.805,0,0,0,3.155,3.786" fill="none" stroke="#263238" stroke-linecap="round" stroke-linejoin="round" stroke-width="1"/>
          <path id="Caminho_50" data-name="Caminho 50" d="M159.9,165.535s-6.625,3.47-5.679,6.31a39,39,0,0,0,2.524,5.678" fill="none" stroke="#263238" stroke-linecap="round" stroke-linejoin="round" stroke-width="1"/>
          <path id="Caminho_51" data-name="Caminho 51" d="M142.237,176.261s-5.994,1.893-6.31,5.364a12.086,12.086,0,0,0,1.262,6.31" fill="none" stroke="#263238" stroke-linecap="round" stroke-linejoin="round" stroke-width="1"/>
        </g>
        <rect id="Retângulo_28" data-name="Retângulo 28" width="46.609" height="5.333" transform="translate(209.333 216.894)" fill="#fff" stroke="#263238" stroke-linecap="round" stroke-linejoin="round" stroke-width="1"/>
        <path id="Caminho_52" data-name="Caminho 52" d="M171.44,92.894s15.709,35.139,17.917,39.872,14.2,12.3,16.406,22.715,5.047,14.828,7.571,22.715,4.733,7.887.947,14.512-4.417,10.727-1.893,14.828,15.459,9.465,13.881,12.62-3.155,4.1-4.417,4.1H220.59s2.84,10.411,1.262,14.2-5.363,6.31-6.625,4.417-3.47-4.733-3.47-4.733,2.524,5.048-.631,5.679-3.786-.315-8.518-2.524-15.459-4.417-15.459-4.417-12.62,5.048-16.721,6.31-9.149-.315-9.149-.315-13.566,5.363-15.775.946-3.785-22.715-4.732-26.185-4.1-6.31-3.47-11.673,2.208-8.519,2.524-10.727,8.518-42.275,8.518-51.109-15.459-53-15.459-53" opacity="0.2"/>
        <g id="Grupo_26" data-name="Grupo 26">
          <g id="Grupo_25" data-name="Grupo 25">
            <path id="Caminho_53" data-name="Caminho 53" d="M168.386,82.974s10.763,38.393,12.971,43.125,14.2,12.3,16.406,22.715,5.047,14.828,7.571,22.715,4.733,7.887.947,14.513-4.417,10.726-1.893,14.827,15.459,9.465,13.881,12.62-3.155,4.1-4.417,4.1H212.59s2.84,10.411,1.262,14.2-5.363,6.31-6.625,4.417-3.47-4.732-3.47-4.732,2.524,5.048-.631,5.678-3.786-.315-8.518-2.523-15.459-4.417-15.459-4.417-12.62,5.048-16.721,6.31-9.149-.316-9.149-.316-13.566,5.363-15.775.946-3.785-22.715-4.732-26.185-4.1-6.31-3.47-11.673,2.208-8.518,2.524-10.727,8.518-42.275,8.518-51.108-15.459-53-15.459-53" fill="#fff"/>
            <g id="Grupo_24" data-name="Grupo 24" clip-path="url(#clip-path-3)">
              <path id="Caminho_54" data-name="Caminho 54" d="M162,231a73.423,73.423,0,0,1-11.876,1.418s.218,7.55-12.62,4.732c2.209,4.417,15.775-.946,15.775-.946s5.048,1.577,9.149.316,16.721-6.31,16.721-6.31,10.726,2.208,15.459,4.417,5.363,3.154,8.518,2.523.631-5.678.631-5.678,2.208,2.839,3.47,4.732,5.048-.631,6.625-4.417-1.262-14.2-1.262-14.2h1.262c1.262,0,2.84-.946,4.417-4.1s-11.357-8.518-13.881-12.62-1.893-8.2,1.893-14.827,1.577-6.626-.947-14.513-5.363-12.3-7.571-22.715c-2-9.425-12.014-16.523-15.532-21.294a95.916,95.916,0,0,0,9.1,18.147c9.334,14,10,27.333,7.334,34.666s-5.334,13.334-5.334,13.334L184,173s1.333,20,4,24.667,4,10,8.667,14,11.333,8.666,6,8.666-19.417-1.165-19.417-1.165,1.417,5.165-5.917,5.165a73.807,73.807,0,0,1-15.333-2S168.667,229.667,162,231Z" fill="#c6ff00"/>
              <path id="Caminho_55" data-name="Caminho 55" d="M162,231a73.423,73.423,0,0,1-11.876,1.418s.218,7.55-12.62,4.732c2.209,4.417,15.775-.946,15.775-.946s5.048,1.577,9.149.316,16.721-6.31,16.721-6.31,10.726,2.208,15.459,4.417,5.363,3.154,8.518,2.523.631-5.678.631-5.678,2.208,2.839,3.47,4.732,5.048-.631,6.625-4.417-1.262-14.2-1.262-14.2h1.262c1.262,0,2.84-.946,4.417-4.1s-11.357-8.518-13.881-12.62-1.893-8.2,1.893-14.827,1.577-6.626-.947-14.513-5.363-12.3-7.571-22.715c-2-9.425-12.014-16.523-15.532-21.294a95.916,95.916,0,0,0,9.1,18.147c9.334,14,10,27.333,7.334,34.666s-5.334,13.334-5.334,13.334L184,173s1.333,20,4,24.667,4,10,8.667,14,11.333,8.666,6,8.666-19.417-1.165-19.417-1.165,1.417,5.165-5.917,5.165a73.807,73.807,0,0,1-15.333-2S168.667,229.667,162,231Z" fill="#fff" opacity="0.5"/>
            </g>
            <path id="Caminho_57" data-name="Caminho 57" d="M168.386,82.974s10.763,38.393,12.971,43.125,14.2,12.3,16.406,22.715,5.047,14.828,7.571,22.715,4.733,7.887.947,14.513-4.417,10.726-1.893,14.827,15.459,9.465,13.881,12.62-3.155,4.1-4.417,4.1H212.59s2.84,10.411,1.262,14.2-5.363,6.31-6.625,4.417-3.47-4.732-3.47-4.732,2.524,5.048-.631,5.678-3.786-.315-8.518-2.523-15.459-4.417-15.459-4.417-12.62,5.048-16.721,6.31-9.149-.316-9.149-.316-13.566,5.363-15.775.946-3.785-22.715-4.732-26.185-4.1-6.31-3.47-11.673,2.208-8.518,2.524-10.727,8.518-42.275,8.518-51.108-15.459-53-15.459-53" fill="none" stroke="#263238" stroke-linecap="round" stroke-linejoin="round" stroke-width="1"/>
          </g>
          <path id="Caminho_58" data-name="Caminho 58" d="M181.988,162.065s5.048,21.137,7.887,28.393,5.679,14.828,8.834,17.668,12.619,7.887,13.881,9.464" fill="none" stroke="#263238" stroke-linecap="round" stroke-linejoin="round" stroke-width="1"/>
          <path id="Caminho_59" data-name="Caminho 59" d="M160.22,185.726s20.191,29.025,23.03,33.442,11.358,4.416,13.566,6.309,6.941,5.995,6.941,5.995" fill="none" stroke="#263238" stroke-linecap="round" stroke-linejoin="round" stroke-width="1"/>
          <path id="Caminho_60" data-name="Caminho 60" d="M140.975,193.929s8.518,10.411,15.459,20.822,7.571,12.935,11.042,13.881,11.673,1.578,11.673,1.578" fill="none" stroke="#263238" stroke-linecap="round" stroke-linejoin="round" stroke-width="1"/>
          <path id="Caminho_61" data-name="Caminho 61" d="M134.35,210.019s14.512,19.56,15.774,22.4a7.805,7.805,0,0,0,3.155,3.786" fill="none" stroke="#263238" stroke-linecap="round" stroke-linejoin="round" stroke-width="1"/>
          <path id="Caminho_62" data-name="Caminho 62" d="M159.9,165.535s-6.625,3.47-5.679,6.31a39,39,0,0,0,2.524,5.678" fill="none" stroke="#263238" stroke-linecap="round" stroke-linejoin="round" stroke-width="1"/>
          <path id="Caminho_63" data-name="Caminho 63" d="M142.237,176.261s-5.994,1.893-6.31,5.364a12.086,12.086,0,0,0,1.262,6.31" fill="none" stroke="#263238" stroke-linecap="round" stroke-linejoin="round" stroke-width="1"/>
        </g>
      </g>
    </g>
  </g>
</svg>
