<svg xmlns="http://www.w3.org/2000/svg" width="63.797" height="224.595" viewBox="0 0 63.797 224.595">
  <g id="battery" transform="translate(-1070.56 -258.039)">
    <path id="light" d="M763.556,215.233v-.22a13.182,13.182,0,0,1,13.181-13.181h.22a13.183,13.183,0,0,1,13.181,13.181v.22a13.182,13.182,0,0,1-13.181,13.181h-.22a13.181,13.181,0,0,1-13.181-13.181" transform="translate(325.903 56.207)" fill="#999"/>
    <path id="light-2" data-name="light" d="M759.523,372.047v-13.4a6.59,6.59,0,0,1,6.591-6.591h24.033a6.59,6.59,0,0,1,6.591,6.591v13.4a6.591,6.591,0,0,1-6.591,6.591H766.114a6.591,6.591,0,0,1-6.591-6.591" transform="translate(324.62 103.996)" fill="#999"/>
    <path id="black" d="M749.218,396.241V259.29h63.8V396.241a6.591,6.591,0,0,1-6.591,6.591H755.809a6.591,6.591,0,0,1-6.591-6.591" transform="translate(321.342 74.486)" fill="#333"/>
    <path id="white" d="M749.218,276.227V212.641a6.591,6.591,0,0,1,6.591-6.591h50.616a6.591,6.591,0,0,1,6.591,6.591v63.586Z" transform="translate(321.342 57.549)" fill="#fff"/>
    <rect id="black-2" data-name="black" width="19.772" height="3.954" transform="translate(1092.573 282.352)" fill="#333"/>
    <path id="white-2" data-name="white" d="M785.69,346.686h-7.909v-7.909h-3.954v7.909h-7.909v3.954h7.909v7.909h3.954v-7.909h7.909Z" transform="translate(326.655 99.772)" fill="#fff"/>
  </g>
</svg>
