<svg id="card" xmlns="http://www.w3.org/2000/svg" width="278.614" height="173.992" viewBox="0 0 278.614 173.992">
  <g transform="translate(-1091.777 -49.997)">
    <path class="white" d="M1032.557,217.992H776.685a11.372,11.372,0,0,1-11.371-11.371V55.371A11.372,11.372,0,0,1,776.685,44h255.871a11.371,11.371,0,0,1,11.371,11.371V206.621a11.371,11.371,0,0,1-11.371,11.371" transform="translate(326.463 5.997)"/>
    <path class="dark" d="M847.691,78.333H833.627a9.053,9.053,0,0,1,.919,3.925,8.571,8.571,0,0,1-.066,1.043h13.773c.029-.347.045-.693.045-1.043a13.17,13.17,0,0,0-.606-3.925" transform="translate(348.194 16.919)"/>
    <path class="dark" data-name="dark" d="M829.574,89.408h16.131a18.536,18.536,0,0,0,2.114-3.057H833.1a18.016,18.016,0,0,1-3.527,3.057" transform="translate(346.905 19.47)"/>
    <path class="dark" data-name="dark" d="M833,86.124h14.358a13.853,13.853,0,0,0,.937-3.057H834.433A10.335,10.335,0,0,1,833,86.124" transform="translate(347.993 18.425)"/>
    <path class="dark" data-name="dark" d="M821.741,92.693h21.678a27.674,27.674,0,0,0,3.615-3.057H829.95a34.475,34.475,0,0,1-8.209,3.057" transform="translate(344.413 20.515)"/>
    <path class="dark" data-name="dark" d="M835.274,78.478h14.511a20.915,20.915,0,0,0-5.839-7H824.5c4.766,1.66,8.555,4.1,10.772,7" transform="translate(345.292 14.738)"/>
    <path class="dark" data-name="dark" d="M849.372,75.425c-6.525-4.553-16.107-7.7-27.029-8.487q.706-5.943,1.41-11.887-10.823,7.64-21.648,15.281l21.648,15.28q-.627-5.469-1.255-10.939a45.193,45.193,0,0,1,4.594.753Z" transform="translate(338.167 9.513)"/>
    <path class="dark" data-name="dark" d="M776.488,69.389h14.064a9.041,9.041,0,0,1-.919-3.924,8.583,8.583,0,0,1,.066-1.043H775.927c-.029.347-.045.693-.045,1.043a13.159,13.159,0,0,0,.606,3.924" transform="translate(329.824 12.494)"/>
    <path class="dark" data-name="dark" d="M795.469,57.853H779.338a18.536,18.536,0,0,0-2.114,3.057h14.718a18.015,18.015,0,0,1,3.527-3.057" transform="translate(330.251 10.404)"/>
    <path class="dark" data-name="dark" d="M791.336,61.138H776.978a13.857,13.857,0,0,0-.937,3.057H789.9a10.329,10.329,0,0,1,1.438-3.057" transform="translate(329.875 11.449)"/>
    <path class="dark" data-name="dark" d="M805,54.568H783.326a27.67,27.67,0,0,0-3.616,3.057h17.084A34.476,34.476,0,0,1,805,54.568" transform="translate(331.042 9.359)"/>
    <path class="dark" data-name="dark" d="M791.468,69.736H776.957a20.917,20.917,0,0,0,5.839,7H802.24c-4.766-1.66-8.555-4.1-10.772-7" transform="translate(330.167 14.184)"/>
    <path class="dark" data-name="dark" d="M782.675,78.473c6.525,4.553,16.107,7.7,27.029,8.487Q809,92.9,808.294,98.848l21.647-15.281-21.647-15.28q.627,5.469,1.255,10.939a45.193,45.193,0,0,1-4.594-.753Z" transform="translate(331.986 13.724)"/>
  </g>
</svg>
