<svg id="cases" xmlns="http://www.w3.org/2000/svg" width="343.014" height="466.041" viewBox="0 0 343.014 466.041">
  <g transform="translate(-797.613 -505.323)">
    <path class="black" d="M771.253,484.485a2.637,2.637,0,0,0,1.577-3.38l-7.213-19.818a2.637,2.637,0,0,0-3.38-1.575l-.929.337-19.386-53.261a26.362,26.362,0,0,0-33.789-15.755L559.5,445.131a26.364,26.364,0,0,0-15.755,33.79l21.64,59.454-.929.338a2.638,2.638,0,0,0-1.576,3.38l13.976,38.4a2.638,2.638,0,0,0,3.38,1.576l.928-.339,93.322,256.4a26.362,26.362,0,0,0,33.789,15.755l3.514-1.28a16.452,16.452,0,0,1,10.5-12.237l115.193-41.927a16.447,16.447,0,0,1,15.911,2.624l3.515-1.279a26.363,26.363,0,0,0,15.755-33.79L783.623,521.362l.929-.337a2.637,2.637,0,0,0,1.575-3.38l-9.467-26.01a2.636,2.636,0,0,0-3.378-1.576l-.929.339-2.029-5.574ZM599.788,498.5a16.476,16.476,0,0,1-30.965,11.271L557.551,478.8a16.477,16.477,0,0,1,30.967-11.27Z" transform="translate(255.468 115.888)"/>
    <path class="dark" d="M815.849,499.958a2.637,2.637,0,0,0,2.138-3.054l-3.663-20.77A2.634,2.634,0,0,0,811.271,474l-.974.171-9.842-55.818a26.362,26.362,0,0,0-30.54-21.384L614.144,424.433a26.362,26.362,0,0,0-21.384,30.54l10.987,62.309-.974.171a2.637,2.637,0,0,0-2.138,3.054l7.1,40.241a2.636,2.636,0,0,0,3.054,2.138l.974-.171,47.38,268.706a26.362,26.362,0,0,0,30.54,21.384l3.684-.649a16.447,16.447,0,0,1,12.467-10.23l120.723-21.286a16.449,16.449,0,0,1,15.214,5.348l3.684-.649a26.363,26.363,0,0,0,21.384-30.54l-45.2-256.375.973-.171a2.636,2.636,0,0,0,2.138-3.054l-4.806-27.26a2.636,2.636,0,0,0-3.054-2.138l-.974.171-1.03-5.842Zm-171.3-15.973a16.476,16.476,0,1,1-32.452,5.722l-5.722-32.452a16.476,16.476,0,1,1,32.452-5.722Z" transform="translate(271.441 118.154)"/>
    <path class="gray" d="M852.388,522.4a2.636,2.636,0,0,0,2.636-2.636v-21.09a2.635,2.635,0,0,0-2.636-2.636H851.4V439.362A26.362,26.362,0,0,0,825.037,413H666.862A26.362,26.362,0,0,0,640.5,439.362v63.27h-.989a2.636,2.636,0,0,0-2.636,2.636V546.13a2.636,2.636,0,0,0,2.636,2.636h.989V821.618a26.362,26.362,0,0,0,26.362,26.362H670.6a16.45,16.45,0,0,1,14.054-7.909H807.242A16.45,16.45,0,0,1,821.3,847.98h3.741A26.362,26.362,0,0,0,851.4,821.618V561.289h.989a2.636,2.636,0,0,0,2.636-2.636V530.972a2.636,2.636,0,0,0-2.636-2.636H851.4V522.4ZM686.469,476.929a16.477,16.477,0,1,1-32.953,0V443.976a16.477,16.477,0,1,1,32.953,0Z" transform="translate(285.603 123.384)"/>
  </g>
</svg>
