<?xml version="1.0" encoding="UTF-8"?><svg id="Camada_2" xmlns="http://www.w3.org/2000/svg" viewBox="0 0 209.45 330.5"><defs><style>.cls-1{fill:#fff;}.cls-1,.cls-2,.cls-3,.cls-4{stroke:#000;stroke-miterlimit:10;stroke-width:.5px;}.cls-2{fill:gray;}.cls-3{fill:#666;}.cls-4{fill:#4d4d4d;}</style></defs><g id="Camada_2-2"><g><g><rect class="cls-4" x="63.45" y="3.25" width="136" height="311" rx="10" ry="10"/><path d="M207.45,98.25c1.1,0,2-.9,2-2V59.25c0-1.1-.9-2-2-2h-1V15.25c0-8.28-6.72-15-15-15H71.45c-8.28,0-15,6.72-15,15V315.25c0,8.28,6.72,15,15,15h120c8.28,0,15-6.72,15-15V127.25h1c1.1,0,2-.9,2-2v-22c0-1.1-.9-2-2-2h-1v-3h1ZM131.45,5.25c2.76,0,5,2.24,5,5s-2.24,5-5,5-5-2.24-5-5,2.24-5,5-5Zm68,299c0,5.52-4.48,10-10,10H73.45c-5.52,0-10-4.48-10-10V20.25c0-5.52,4.48-10,10-10h50c0,4.42,3.58,8,8,8s8-3.58,8-8h50c5.52,0,10,4.48,10,10V304.25Z"/></g><g><path class="cls-3" d="M27.33,214.21h-2.26c-.63,0-1.13,.51-1.13,1.13v99.62c0,.63,.51,1.13,1.13,1.13v13.02c0,.63,.51,1.13,1.13,1.13s1.13-.51,1.13-1.13v-13.02c.63,0,1.13-.51,1.13-1.13v-99.62c0-.63-.51-1.13-1.13-1.13Z"/><path class="cls-1" d="M46.67,.25H6.15c-2.96,0-5.6,2.16-5.88,5.1-.32,3.38,2.32,6.22,5.63,6.22h.57c1.77,4.55,2.98,9.1,4.07,13.66,3.97,17.93,5.72,36.34,4.57,54.62-.58,7.95-3.07,19.38-4.65,27.31-4.75,22.62-1.85,45.65,1.31,68.28,1.85,15.31,2.77,30.73,3.1,46.14,.1,4.71,3.94,8.48,8.65,8.48h5.55c4.71,0,8.55-3.77,8.65-8.48,.33-15.41,1.25-30.83,3.1-46.14,1.77-13.63,3.82-27.22,3.81-40.97,.13-9.19-.71-18.27-2.51-27.31-1.57-7.91-4.07-19.41-4.65-27.31-.97-13.7,.08-27.33,1.98-40.97,1.47-9.28,3.28-18.39,6.66-27.31h.32c2.96,0,5.6-2.16,5.88-5.1,.32-3.38-2.32-6.22-5.63-6.22Zm-13.02,31.7c0,4.06-3.29,7.36-7.36,7.36s-7.36-3.29-7.36-7.36v-10.19c0-4.06,3.29-7.36,7.36-7.36s7.36,3.29,7.36,7.36v10.19Z"/><path class="cls-2" d="M38.17,182.23h-1.7v-29.72c0-5.63-4.56-10.19-10.19-10.19s-10.19,4.56-10.19,10.19v29.72h-1.7c-1.88,0-3.4,1.52-3.4,3.4v28.3c0,1.88,1.52,3.4,3.4,3.4h23.77c1.88,0,3.4-1.52,3.4-3.4v-28.3c0-1.88-1.52-3.4-3.4-3.4Zm-11.89,31.7c-5.31,0-9.62-6.34-9.62-14.15s4.31-14.15,9.62-14.15,9.62,6.34,9.62,14.15-4.31,14.15-9.62,14.15Z"/></g></g></g></svg>