<svg id="charger" xmlns="http://www.w3.org/2000/svg" width="341.393" height="184.264" viewBox="0 0 341.393 184.264">
  <g transform="translate(-125.839 8)">
    <path class="black" d="M290.452,122.256H243v-6.591h47.452a9.9,9.9,0,0,0,9.886-9.886V0h6.591V105.779a16.494,16.494,0,0,1-16.477,16.477" transform="translate(160.303 -8)"/>
    <path class="gray" d="M253.953,106.612H227.591A6.591,6.591,0,0,1,221,100.022V86.841a6.591,6.591,0,0,1,6.591-6.591h26.362a6.591,6.591,0,0,1,6.591,6.591v13.181a6.591,6.591,0,0,1-6.591,6.591" transform="translate(153.305 17.529)"/>
    <path class="gray" data-name="light" d="M272.515,40.706c-3.592,0-6.53,1.225-6.53,2.721s-2.966,2.722-6.591,2.722H88.635a6.61,6.61,0,0,0-6.591,6.591V159.282a6.61,6.61,0,0,0,6.591,6.591h170.76c3.625,0,6.591,1.225,6.591,2.722s2.938,2.721,6.53,2.721a6.58,6.58,0,0,0,6.53-6.591V47.3a6.58,6.58,0,0,0-6.53-6.591" transform="translate(109.1 4.949)" />
    <path class="gray" d="M65.152,122.027H39.974a7.473,7.473,0,1,1,0-14.946H65.152Z" transform="translate(93.339 26.065)" />
    <path class="gray" data-name="gray" d="M65.152,75.787H39.974a7.473,7.473,0,1,1,0-14.946H65.152Z" transform="translate(93.339 11.355)" />
    <rect class="white" width="32.652" height="16.326" transform="translate(158.491 132.456)"/>
    <rect class="white" data-name="white" width="32.652" height="16.326" transform="translate(158.491 71.505)"/>
    <path class="white" data-name="white" d="M252.945,40.706c-3.592,0-6.53,1.225-6.53,2.721s-2.966,2.722-6.591,2.722H150.152a6.61,6.61,0,0,0-6.591,6.591V159.282a6.61,6.61,0,0,0,6.591,6.591h89.673c3.625,0,6.591,1.225,6.591,2.722s2.938,2.721,6.53,2.721a6.58,6.58,0,0,0,6.53-6.591V47.3a6.58,6.58,0,0,0-6.53-6.591" transform="translate(128.67 4.949)"/>
    <path class="white" data-name="white" d="M131.99,140.634H82.044V58.46H131.99a13.181,13.181,0,0,1,13.181,13.181v55.812a13.181,13.181,0,0,1-13.181,13.181" transform="translate(109.1 10.597)"/>
    <path class="dark" d="M232.607,98.437v.712c-.659,1.106-1.014,1.255-2.333,1.065-1.265-.183-2.536-.332-3.8-.5q-7.889-1.034-15.778-2.069c-1.733-.227-3.467-.448-5.284-.683v.908c0,6.115-.016,12.23.016,18.343a2.23,2.23,0,0,1-1.014,2.159h-1a.917.917,0,0,0-.15-.137Q182.276,106.459,161.3,94.667a7.69,7.69,0,0,1-1.315-1.214v-.712a1.828,1.828,0,0,1,2.168-1.153c1.811.229,3.63.389,5.447.577q7.323.759,14.648,1.518c1.62.167,3.241.328,4.935.5v-.908c0-6.123-.012-12.244.024-18.367a2.488,2.488,0,0,1,.55-1.453c.457-.554,1.156-.492,2.013,0Q210.641,85.365,231.5,97.3a5.7,5.7,0,0,1,1.1,1.139" transform="translate(133.894 15.243)"/>
  </g>
</svg>
