<svg id="headphone" xmlns="http://www.w3.org/2000/svg" width="399.451" height="407.12" viewBox="0 0 399.451 407.12">
  <g transform="translate(-486.974 -6.723)">
    <path id="light" d="M438.627,340.995l-28.653,6.191a5.3,5.3,0,0,1-5.926-2.942L345.311,218.282a5.3,5.3,0,0,1,1.555-6.43l23.161-17.97a11.625,11.625,0,0,1,17.663,4.271l59.019,126.565a11.626,11.626,0,0,1-8.081,16.277" transform="translate(192.693 52.9)"/>
    <path id="dark" d="M406.315,342.98,402.63,344.7a1.32,1.32,0,0,1-1.752-.638l-61.2-131.244a1.317,1.317,0,0,1,.637-1.752L344,209.346a1.319,1.319,0,0,1,1.752.638l61.2,131.244a1.318,1.318,0,0,1-.638,1.752" transform="translate(191.02 58.558)"/>
    <path id="black" d="M405.9,345.129l-19.519,9.1a3.955,3.955,0,0,1-5.255-1.913L322.15,225.852a3.954,3.954,0,0,1,1.913-5.255l19.519-9.1a1.319,1.319,0,0,1,1.752.638l61.2,131.244a1.318,1.318,0,0,1-.638,1.752" transform="translate(185.364 59.242)"/>
    <path id="dark" data-name="dark" d="M382.391,349.5l-1.23.575a5.346,5.346,0,0,1-7.1-2.587L319.093,229.619a5.348,5.348,0,0,1,2.586-7.1l1.23-.573Z" transform="translate(184.351 62.604)"/>
    <path id="light" data-name="light" d="M502.229,340.995l28.653,6.191a5.3,5.3,0,0,0,5.926-2.942l58.737-125.962a5.3,5.3,0,0,0-1.555-6.43l-23.161-17.97a11.625,11.625,0,0,0-17.663,4.271L494.147,324.717a11.626,11.626,0,0,0,8.081,16.277" transform="translate(239.85 52.9)"/>
    <path id="dark" data-name="dark" d="M525.981,342.98l3.685,1.719a1.32,1.32,0,0,0,1.752-.638l61.2-131.244a1.317,1.317,0,0,0-.637-1.752l-3.685-1.719a1.319,1.319,0,0,0-1.752.638l-61.2,131.244a1.318,1.318,0,0,0,.638,1.752" transform="translate(250.083 58.558)"/>
    <path id="black" data-name="black" d="M530.59,345.129l19.519,9.1a3.955,3.955,0,0,0,5.255-1.913l58.971-126.466a3.954,3.954,0,0,0-1.913-5.255l-19.519-9.1a1.319,1.319,0,0,0-1.752.638l-61.2,131.244a1.318,1.318,0,0,0,.638,1.752" transform="translate(251.55 59.242)"/>
    <path id="dark" data-name="dark" d="M549.007,349.5l1.23.575a5.346,5.346,0,0,0,7.1-2.587L612.3,229.619a5.348,5.348,0,0,0-2.586-7.1l-1.23-.573Z" transform="translate(257.651 62.604)"/>
    <path id="white" d="M691.221,151.332c-6.541-29.022-19-54.56-37.03-75.9C616.815,31.191,567.522,19.671,549.567,15.77a224.29,224.29,0,0,0-90.284,0c-17.955,3.9-67.248,15.421-104.625,59.659-18.031,21.343-30.489,46.88-37.03,75.9-5.317,23.593-5.473,44.133-5.557,55.17-.484,63.9,26.083,112.49,41.962,135.764a10.053,10.053,0,1,0,16.608-11.331c-14.555-21.335-38.907-65.849-38.464-124.282.167-22.18.562-74.122,37.839-118.249a145.268,145.268,0,0,1,11.737-12.334,18.739,18.739,0,0,1-.65-5.548c.153-4.246,1.971-12.767,17.426-23.457,25.507-17.64,62.857-23.692,65.682-24.128a306.634,306.634,0,0,1,40.213-3.514,306.637,306.637,0,0,1,40.213,3.514c2.825.436,40.175,6.488,65.682,24.128,15.455,10.69,17.273,19.212,17.425,23.457a18.737,18.737,0,0,1-.65,5.548,145.259,145.259,0,0,1,11.737,12.334c37.278,44.127,37.672,96.069,37.839,118.249.443,58.432-23.91,102.947-38.464,124.282a10.053,10.053,0,1,0,16.608,11.331c15.879-23.274,42.446-71.86,41.962-135.764-.084-11.037-.24-31.577-5.557-55.17" transform="translate(182.275 -4.447)"/>
    <path id="black" data-name="black" d="M529.063,22.36c-5.6-1.181-11.05-2.122-16.329-2.862.018-.386-17.721-2.5-28.669-2.28C473.117,17,455.377,19.112,455.4,19.5c-5.279.739-10.731,1.681-16.329,2.862a241.87,241.87,0,0,0-63,22.788h216a241.84,241.84,0,0,0-63-22.788" transform="translate(202.635 -2.528)"/>
    <path id="black" data-name="black" d="M306.477,145.18l22.788,1.341,1.341,26.809-21.447,13.4Z" transform="translate(180.497 38.185)"/>
    <path id="black" data-name="black" d="M327.145,150.265a38.943,38.943,0,0,1,1.34,45.575,132.372,132.372,0,0,1-1.34-45.575" transform="translate(186.638 39.802)"/>
    <path id="black" data-name="black" d="M615.346,145.18l-22.788,1.341-1.341,26.809,21.447,13.4Z" transform="translate(271.079 38.185)"/>
    <path id="black" data-name="black" d="M591.128,150.265a38.943,38.943,0,0,0-1.341,45.575,132.372,132.372,0,0,0,1.341-45.575" transform="translate(268.488 39.802)"/>
  </g>
</svg>
