<svg id="joystick" xmlns="http://www.w3.org/2000/svg" width="407.959" height="280.375" viewBox="0 0 407.959 280.375">
  <g transform="translate(-83 -225.307)">
    <path class="black" d="M235.285,269.928h-6.591V193.477a9.9,9.9,0,0,0-9.886-9.886H0V177H218.808a16.494,16.494,0,0,1,16.477,16.477Z" transform="translate(83 48.307)"/>
    <path class="black" data-name="black" d="M292.362,316.69V266.8H107.452V316.69a43.992,43.992,0,1,0,78.706,38.1h27.5a43.994,43.994,0,1,0,78.706-38.1" transform="translate(115.029 76.875)"/>
    <path class="dark" d="M189.822,264.257H170.051a6.591,6.591,0,0,1-6.591-6.591V244.486a6.591,6.591,0,0,1,6.591-6.591h19.772a6.591,6.591,0,0,1,6.591,6.591v13.181a6.591,6.591,0,0,1-6.591,6.591" transform="translate(135 67.679)"/>
    <path class="dark" data-name="dark" d="M174.617,316.527,59.238,274.533l-16.3,102.914a42.284,42.284,0,0,0,78.006,28.392Z" transform="translate(96.494 79.335)"/>
    <path class="dark" data-name="dark" d="M209.207,316.527l115.379-41.994,16.3,102.914a42.283,42.283,0,0,1-27.3,46.346h0a42.283,42.283,0,0,1-50.7-17.954Z" transform="translate(149.553 79.335)"/>
    <path class="dark" data-name="dark" d="M144.335,262.132H73.316l5.99-27.736a7.74,7.74,0,0,1,7.566-6.106h43.908a7.74,7.74,0,0,1,7.566,6.106Z" transform="translate(106.323 64.624)"/>
    <path class="dark" data-name="dark" d="M224.725,262.132h71.018l-5.99-27.736a7.74,7.74,0,0,0-7.566-6.106H238.279a7.74,7.74,0,0,0-7.566,6.106Z" transform="translate(154.49 64.624)"/>
    <path class="light" d="M318.344,238.988A56.259,56.259,0,0,0,275.5,258.731H153.716a56.39,56.39,0,1,0-25.433,90.311,33.84,33.84,0,0,0,67.025-2.324h38.6a33.84,33.84,0,0,0,67.025,2.324,56.4,56.4,0,1,0,17.41-110.054" transform="translate(100.328 68.027)"/>
    <path class="black" data-name="black" d="M170.778,324.957a28.2,28.2,0,1,1-28.2-28.2,28.2,28.2,0,0,1,28.2,28.2" transform="translate(119.385 86.404)"/>
    <path class="black" data-name="black" d="M251.155,324.957a28.2,28.2,0,1,1-28.2-28.2,28.2,28.2,0,0,1,28.2,28.2" transform="translate(144.955 86.404)"/>
    <path class="black" data-name="black" d="M120.619,257.923a6.61,6.61,0,0,0-6.591-6.591H99.008a6.61,6.61,0,0,0-6.591,6.591v12.85a6.61,6.61,0,0,1-6.591,6.591H72.976a6.61,6.61,0,0,0-6.591,6.591v15.021a6.61,6.61,0,0,0,6.591,6.591H85.827a6.61,6.61,0,0,1,6.591,6.591v12.85a6.61,6.61,0,0,0,6.591,6.591h15.02a6.61,6.61,0,0,0,6.591-6.591v-12.85a6.61,6.61,0,0,1,6.591-6.591h12.85a6.61,6.61,0,0,0,6.591-6.591V283.954a6.61,6.61,0,0,0-6.591-6.591H127.21a6.61,6.61,0,0,1-6.591-6.591Z" transform="translate(104.118 71.954)"/>
    <path class="black" data-name="black" d="M304.119,283.954a6.61,6.61,0,0,0-6.591-6.591h-12.85a6.61,6.61,0,0,1-6.591-6.591v-12.85a6.61,6.61,0,0,0-6.591-6.591H256.475a6.61,6.61,0,0,0-6.591,6.591v12.85a6.61,6.61,0,0,1-6.591,6.591h-12.85a6.61,6.61,0,0,0-6.591,6.591v15.02a6.61,6.61,0,0,0,6.591,6.591h12.85a6.61,6.61,0,0,1,6.591,6.591v12.852a6.61,6.61,0,0,0,6.591,6.591H271.5a6.61,6.61,0,0,0,6.591-6.591V312.155a6.61,6.61,0,0,1,6.591-6.591h12.85a6.61,6.61,0,0,0,6.591-6.591Z" transform="translate(154.212 71.954)"/>
    <path class="white" d="M90.91,253.965a2.644,2.644,0,0,0-2.636,2.636v9.956a7.38,7.38,0,0,0,1.857,4.508l7.566,7.619a2.62,2.62,0,0,0,3.714,0l7.566-7.619a7.38,7.38,0,0,0,1.857-4.508V256.6a2.644,2.644,0,0,0-2.636-2.636Z" transform="translate(111.082 72.792)"/>
    <path class="white" data-name="white" d="M108.2,315.745a2.644,2.644,0,0,0,2.636-2.636v-9.956a7.38,7.38,0,0,0-1.857-4.508l-7.566-7.619a2.62,2.62,0,0,0-3.714,0l-7.566,7.619a7.38,7.38,0,0,0-1.857,4.508v9.956a2.644,2.644,0,0,0,2.636,2.636Z" transform="translate(111.082 84.336)"/>
    <path class="white" data-name="white" d="M130.8,275.857a2.644,2.644,0,0,0-2.636-2.636h-9.956a7.38,7.38,0,0,0-4.508,1.857l-7.619,7.566a2.62,2.62,0,0,0,0,3.714l7.619,7.566a7.38,7.38,0,0,0,4.508,1.857h9.956a2.644,2.644,0,0,0,2.636-2.636Z" transform="translate(116.5 78.917)"/>
    <path class="white" data-name="white" d="M69.018,293.146a2.644,2.644,0,0,0,2.636,2.636H81.61a7.38,7.38,0,0,0,4.508-1.857l7.619-7.566a2.62,2.62,0,0,0,0-3.714l-7.619-7.566a7.38,7.38,0,0,0-4.508-1.857H71.654a2.644,2.644,0,0,0-2.636,2.636Z" transform="translate(104.956 78.917)"/>
    <path class="white" data-name="white" d="M268.3,265.245a11.28,11.28,0,1,1-11.28-11.281,11.28,11.28,0,0,1,11.28,11.281" transform="translate(161.176 72.792)"/>
    <path class="white" data-name="white" d="M268.3,303.756a11.28,11.28,0,1,1-11.28-11.279,11.281,11.281,0,0,1,11.28,11.279" transform="translate(161.176 85.043)"/>
    <path class="white" data-name="white" d="M276.279,295.782a11.28,11.28,0,1,1,11.28-11.28,11.281,11.281,0,0,1-11.28,11.28" transform="translate(167.301 78.917)"/>
    <path class="white" data-name="white" d="M237.767,295.782a11.28,11.28,0,1,1,11.28-11.28,11.281,11.281,0,0,1-11.28,11.28" transform="translate(155.05 78.917)"/>
    <rect class="white" data-name="white" width="22.561" height="11.28" transform="translate(277.756 357.779)"/>
    <path class="white" data-name="white" d="M208.825,282.841l-22.561-5.64v11.281Z" transform="translate(142.255 80.183)"/>
    <path class="white" data-name="white" d="M189.569,300.333a11.28,11.28,0,1,1-11.28-11.28,11.28,11.28,0,0,1,11.28,11.28" transform="translate(136.129 83.954)"/>
  </g>
</svg>
