<svg xmlns="http://www.w3.org/2000/svg" width="300.96" height="204.125" viewBox="0 0 300.96 204.125">
  <g id="logo-stop-cell" transform="translate(-809.52 -497.999)">
    <path id="Caminho_1" data-name="Caminho 1" d="M.407,81.6V59.526H20.292v1.741q0,6.384,2.5,9.43t7.849,3.047A9.136,9.136,0,0,0,37.3,71.221a8.937,8.937,0,0,0,2.587-6.7,9.043,9.043,0,0,0-2.965-6.963q-2.965-2.726-9.245-5.047Q23.489,51,20.321,49.839a59.694,59.694,0,0,1-6.338-2.755A34.423,34.423,0,0,1,8.6,43.805,21.955,21.955,0,0,1,2.093,36.06,23.72,23.72,0,0,1,0,25.645,25.329,25.329,0,0,1,3.628,11.981,23.113,23.113,0,0,1,14.075,3.075,37.977,37.977,0,0,1,29.831,0,48.619,48.619,0,0,1,45.124,2.377a46.132,46.132,0,0,1,13.61,7.247V30.392H39.308V28.825q0-5.744-2.385-8.675t-7.152-2.931a10.279,10.279,0,0,0-7.008,2.26,7.48,7.48,0,0,0-2.588,5.914,6.723,6.723,0,0,0,1.74,4.7A15.7,15.7,0,0,0,27.1,33.567q3.447,1.566,9.421,3.595a65.354,65.354,0,0,1,13.827,6.232A20.516,20.516,0,0,1,57.83,51.54q2.464,4.927,2.464,12.581a28.766,28.766,0,0,1-3.568,14.493,24.3,24.3,0,0,1-10.3,9.711,34.313,34.313,0,0,1-15.841,3.449,50.728,50.728,0,0,1-16.191-2.6A45.037,45.037,0,0,1,.407,81.6" transform="translate(809.52 498)" fill="#3b3b3b"/>
    <path id="Caminho_2" data-name="Caminho 2" d="M99.335,18.494q-4.349.117-6.2,2.464t-1.855,7.623v8.928H74.87V1.739h69.337v35.77H127.916V28.581q0-5.274-1.871-7.652t-6.3-2.435V65.975a39.449,39.449,0,0,0,.23,5.073,4.831,4.831,0,0,0,1.18,2.638,5.315,5.315,0,0,0,2.965,1.449V89.977h-29.3V75.135A5.515,5.515,0,0,0,97.8,73.657a4.923,4.923,0,0,0,1.276-2.638,34.269,34.269,0,0,0,.261-5.044Z" transform="translate(809.52 498)" fill="#3b3b3b"/>
    <path id="Caminho_3" data-name="Caminho 3" d="M159.942,31.423q0-6.263.261-9.857a32.67,32.67,0,0,1,1.246-6.928,17.973,17.973,0,0,1,3.189-6.116A19.61,19.61,0,0,1,174.32,2a50.058,50.058,0,0,1,15.3-2,48.762,48.762,0,0,1,15.1,2,20.326,20.326,0,0,1,9.711,6.522,19,19,0,0,1,3.884,8.929,92.775,92.775,0,0,1,.813,13.972v28.87a92.8,92.8,0,0,1-.813,13.973,19,19,0,0,1-3.884,8.928,20.494,20.494,0,0,1-9.682,6.521,47.775,47.775,0,0,1-15.131,2.059,48.761,48.761,0,0,1-15.3-2.059,20.118,20.118,0,0,1-9.682-6.521,18.339,18.339,0,0,1-3.16-6.059,31.523,31.523,0,0,1-1.275-6.927q-.261-3.6-.261-9.915Zm20.291-.7V60.989q0,6.783,2.145,9.885t7.247,3.1q5.1,0,7.16-3.13t2.058-9.856V30.726q0-6.664-2.029-9.8t-7.189-3.13q-5.16,0-7.276,3.1t-2.116,9.827" transform="translate(809.52 498)" fill="#3b3b3b"/>
    <path id="Caminho_4" data-name="Caminho 4" d="M262.233,65.975a39.22,39.22,0,0,0,.231,5.073,4.826,4.826,0,0,0,1.189,2.638,5.353,5.353,0,0,0,2.986,1.449V89.977H237.3V75.135a5.515,5.515,0,0,0,2.986-1.478,4.911,4.911,0,0,0,1.275-2.638,34.233,34.233,0,0,0,.262-5.044V25.161a20.081,20.081,0,0,0-.754-6.639Q240.317,16.64,237.3,16V1.739h34.96q10.375,0,16.667,2.87a18,18,0,0,1,9.16,9.073q2.869,6.2,2.87,16.464,0,12.176-2.435,19.132a17.505,17.505,0,0,1-8.609,10.175q-6.174,3.218-17.653,3.218h-10.03Zm0-22.32h7.653a19.118,19.118,0,0,0,6.521-.87,5.78,5.78,0,0,0,3.334-3.3,18.669,18.669,0,0,0,1.044-7.073q0-6.9-2.319-9.392T270,20.523h-7.768Z" transform="translate(809.52 498)" fill="#3b3b3b"/>
    <path id="Caminho_5" data-name="Caminho 5" d="M5.334,143.772a102.88,102.88,0,0,1,.608-12.552,21.756,21.756,0,0,1,2.813-8.434,18.577,18.577,0,0,1,9.71-8q6.405-2.434,16.552-2.434a67.182,67.182,0,0,1,28.466,6.493v24.929H44.235v-1.739q0-11.883-9.218-11.885-5.16,0-7.276,3.1t-2.116,9.826v30.263q0,6.784,2.145,9.885t7.247,3.1q5.1,0,7.16-3.131t2.058-9.856v-6.261H63.483v30.263a58.681,58.681,0,0,1-13.567,5.015,63.572,63.572,0,0,1-14.9,1.768,48.8,48.8,0,0,1-15.306-2.058,20.129,20.129,0,0,1-9.682-6.522,18.274,18.274,0,0,1-3.1-6,32.72,32.72,0,0,1-1.3-6.957q-.291-3.622-.29-9.942Z" transform="translate(809.52 498)" fill="#3b3b3b"/>
    <path id="Caminho_6" data-name="Caminho 6" d="M82.58,202.327V187.485a5.5,5.5,0,0,0,2.985-1.478,4.919,4.919,0,0,0,1.276-2.638,34.271,34.271,0,0,0,.261-5.044V137.511a20.07,20.07,0,0,0-.754-6.638q-.753-1.884-3.768-2.522V114.089h62.149v26.959H125.6v-.928q0-5.218-2.319-7.189t-8.232-1.971H107.51V149.4h24.117v14.842H107.51v21.218h8.928q5.332,0,7.246-2.116t1.913-7.392V172.76h19.132v29.567Z" transform="translate(809.52 498)" fill="#3b3b3b"/>
    <path id="Caminho_7" data-name="Caminho 7" d="M221.279,202.327h-59.6V187.485a5.508,5.508,0,0,0,2.985-1.478,4.919,4.919,0,0,0,1.276-2.638,34.271,34.271,0,0,0,.261-5.044V137.511a20.07,20.07,0,0,0-.754-6.638q-.755-1.884-3.768-2.522V114.089h29.335v14.262a5.1,5.1,0,0,0-2.956,1.478,5.3,5.3,0,0,0-1.189,2.7,34.459,34.459,0,0,0-.261,4.986v48.061h6.667q4.521,0,6.754-1.362a6.356,6.356,0,0,0,2.9-4.146,36.487,36.487,0,0,0,.668-8v-9.739h17.682Z" transform="translate(809.52 498)" fill="#3b3b3b"/>
    <path id="Caminho_8" data-name="Caminho 8" d="M295.626,202.327h-59.6V187.485a5.508,5.508,0,0,0,2.985-1.478,4.919,4.919,0,0,0,1.276-2.638,34.271,34.271,0,0,0,.261-5.044V137.511a20.07,20.07,0,0,0-.754-6.638q-.755-1.884-3.768-2.522V114.089h29.335v14.262a5.1,5.1,0,0,0-2.956,1.478,5.307,5.307,0,0,0-1.189,2.7,34.462,34.462,0,0,0-.261,4.986v48.061h6.667q4.521,0,6.754-1.362a6.356,6.356,0,0,0,2.9-4.146,36.487,36.487,0,0,0,.668-8v-9.739h17.682Z" transform="translate(809.52 498)" fill="#3b3b3b"/>
  </g>
</svg>
