<svg id="pellicle" xmlns="http://www.w3.org/2000/svg" width="434.98" height="197.718" viewBox="0 0 434.98 197.718">
  <g transform="translate(-406.599 -773.646)">
    <path id="glass" data-name="Caminho 15077" d="M255.5,613.181v65.906a10.545,10.545,0,1,1,0,21.09v65.906a13.181,13.181,0,0,0,13.181,13.181H643.028a13.181,13.181,0,0,0,13.181-13.181v-152.9A13.181,13.181,0,0,0,643.028,600H268.681A13.181,13.181,0,0,0,255.5,613.181" transform="translate(164.28 182.873)" fill="#f2f2f280"/>
    <path id="black" d="M245.5,612.772V770.946a19.772,19.772,0,0,0,19.772,19.772H660.708a19.772,19.772,0,0,0,19.772-19.772V612.772A19.772,19.772,0,0,0,660.708,593H265.272A19.772,19.772,0,0,0,245.5,612.772m6.591,79.087a6.591,6.591,0,1,1,6.591,6.591,6.591,6.591,0,0,1-6.591-6.591m394.118-89.632a13.181,13.181,0,0,1,13.181,13.181v152.9a13.181,13.181,0,0,1-13.181,13.181H271.862a13.181,13.181,0,0,1-13.181-13.181V702.4a10.545,10.545,0,1,0,0-21.09V615.408a13.181,13.181,0,0,1,13.181-13.181Z" transform="translate(161.099 180.646)"/>
  </g>
</svg>
