<svg id="remote-control" xmlns="http://www.w3.org/2000/svg" width="107.203" height="389.505" viewBox="0 0 107.203 389.505">
  <g transform="translate(-665.881 -58.383)">
    <path class="black" d="M682.436,62.5c-29.6,0-53.6,4.533-53.6,10.124V441.88c0,5.591,24,10.124,53.6,10.124s53.6-4.533,53.6-10.124V72.624c0-5.591-24-10.124-53.6-10.124" transform="translate(37.046 -4.117)"/>
    <path class="gray" d="M721.251,153.07c0,22.7-18.666,41.1-41.69,41.1s-41.691-18.4-41.691-41.1,18.666-41.1,41.691-41.1,41.69,18.4,41.69,41.1" transform="translate(39.92 11.622)"/>
    <path class="white" d="M699.072,148.9a23.823,23.823,0,1,1-23.822-23.822A23.822,23.822,0,0,1,699.072,148.9" transform="translate(44.232 15.79)"/>
    <path class="gray" data-name="gray" d="M682.808,100.33a10.72,10.72,0,1,1-10.72-10.72,10.72,10.72,0,0,1,10.72,10.72" transform="translate(47.395 4.507)"/>
    <path class="gray" data-name="gray" d="M657.094,82.277a8.934,8.934,0,1,1-8.934-8.934,8.934,8.934,0,0,1,8.934,8.934" transform="translate(40.352 -0.668)"/>
    <path class="gray" data-name="gray" d="M682.808,191.149a10.72,10.72,0,1,1-10.72-10.72,10.72,10.72,0,0,1,10.72,10.72" transform="translate(47.395 33.398)"/>
    <path class="gray" data-name="gray" d="M705.852,191.149a10.72,10.72,0,1,1-10.72-10.72,10.72,10.72,0,0,1,10.72,10.72" transform="translate(54.726 33.398)"/>
    <path class="gray" data-name="gray" d="M659.763,191.149a10.72,10.72,0,1,1-10.72-10.72,10.72,10.72,0,0,1,10.72,10.72" transform="translate(40.064 33.398)"/>
    <path class="gray" data-name="gray" d="M682.808,213.74a10.72,10.72,0,1,1-10.72-10.72,10.72,10.72,0,0,1,10.72,10.72" transform="translate(47.395 40.585)"/>
    <path class="_gray" data-name=" gray" d="M705.852,213.74a10.72,10.72,0,1,1-10.72-10.72,10.72,10.72,0,0,1,10.72,10.72" transform="translate(54.726 40.585)"/>
    <path class="gray" data-name="gray" d="M659.763,213.74a10.72,10.72,0,1,1-10.72-10.72,10.72,10.72,0,0,1,10.72,10.72" transform="translate(40.064 40.585)"/>
    <path class="gray" data-name="gray" d="M705.852,237.236a10.72,10.72,0,1,1-10.72-10.72,10.72,10.72,0,0,1,10.72,10.72" transform="translate(54.726 48.06)"/>
    <path class="gray" data-name="gray" d="M659.763,237.236a10.72,10.72,0,1,1-10.72-10.72,10.72,10.72,0,0,1,10.72,10.72" transform="translate(40.064 48.06)"/>
    <path class="gray" data-name="gray" d="M673.212,280.117h-2.249a9.6,9.6,0,0,1-9.6-9.6v-34.41a9.6,9.6,0,0,1,9.6-9.6h2.249a9.6,9.6,0,0,1,9.6,9.6v34.41a9.6,9.6,0,0,1-9.6,9.6" transform="translate(47.395 48.06)"/>
    <path class="light" d="M708.849,281.277v1.874a8,8,0,0,1-8,8H681.111a8,8,0,0,1-8-8v-1.874a8,8,0,0,1,8-8h19.742a8,8,0,0,1,8,8" transform="translate(51.132 62.936)"/>
    <path class="light" data-name="light" d="M674.509,281.277v1.874a8,8,0,0,1-8,8H646.771a8,8,0,0,1-8-8v-1.874a8,8,0,0,1,8-8h19.741a8,8,0,0,1,8,8" transform="translate(40.208 62.936)"/>
    <path class="light" data-name="light" d="M708.849,300.932v1.874a8,8,0,0,1-8,8H681.111a8,8,0,0,1-8-8v-1.874a8,8,0,0,1,8-8h19.742a8,8,0,0,1,8,8" transform="translate(51.132 69.189)"/>
    <path class="light" data-name="light" d="M674.509,300.932v1.874a8,8,0,0,1-8,8H646.771a8,8,0,0,1-8-8v-1.874a8,8,0,0,1,8-8h19.741a8,8,0,0,1,8,8" transform="translate(40.208 69.189)"/>
    <path class="dark" d="M669.767,82.093a2.977,2.977,0,0,1-2.978-2.978V73.159a2.978,2.978,0,1,1,5.955,0v5.957a2.977,2.977,0,0,1-2.978,2.978" transform="translate(49.12 -1.674)"/>
  </g>
</svg>
