<svg id="smartphone" xmlns="http://www.w3.org/2000/svg" width="275.757" height="434.98" viewBox="0 0 275.757 434.98">
  <g transform="translate(-103.161 -537.702)">
    <path class="gray" d="M244.583,826.936H91.681A13.181,13.181,0,0,1,78.5,813.754V430.181A13.181,13.181,0,0,1,91.681,417h152.9a13.181,13.181,0,0,1,13.181,13.181V813.754a13.181,13.181,0,0,1-13.181,13.181" transform="translate(107.973 124.657)"/>
    <path class="black" d="M270.536,543.176a2.636,2.636,0,0,0,2.636-2.636V491.769a2.636,2.636,0,0,0-2.636-2.636h-1.318V433.772A19.772,19.772,0,0,0,249.446,414H91.272A19.772,19.772,0,0,0,71.5,433.772V829.208A19.772,19.772,0,0,0,91.272,848.98H249.446a19.772,19.772,0,0,0,19.772-19.772V581.4h1.318a2.636,2.636,0,0,0,2.636-2.636v-29a2.636,2.636,0,0,0-2.636-2.636h-1.318v-3.954ZM170.359,420.591a6.591,6.591,0,1,1-6.591,6.591,6.591,6.591,0,0,1,6.591-6.591m89.632,394.118A13.181,13.181,0,0,1,246.81,827.89H93.908a13.181,13.181,0,0,1-13.181-13.181V440.362a13.181,13.181,0,0,1,13.181-13.181h65.906a10.545,10.545,0,1,0,21.09,0H246.81a13.181,13.181,0,0,1,13.181,13.181Z" transform="translate(105.746 123.702)"/>
    <path class="gray" data-name="gray" d="M43.451,627.962H40.467a1.492,1.492,0,0,0-1.492,1.492V760.769a1.492,1.492,0,0,0,1.492,1.492v17.161a1.492,1.492,0,1,0,2.984,0V762.261a1.492,1.492,0,0,0,1.492-1.492V629.454a1.492,1.492,0,0,0-1.492-1.492" transform="translate(95.399 191.768)"/>
    <path class="white" d="M76.477,414h-53.4a7.678,7.678,0,0,0-7.747,6.728,7.464,7.464,0,0,0,7.426,8.195H23.5a135.753,135.753,0,0,1,5.361,18,259.23,259.23,0,0,1,6.029,72c-.77,10.48-4.044,25.542-6.135,36-6.262,29.817-2.437,60.167,1.72,90,2.44,20.184,3.646,40.507,4.084,60.823a11.406,11.406,0,0,0,11.4,11.175h7.309a11.406,11.406,0,0,0,11.4-11.175c.438-20.316,1.644-40.639,4.084-60.823,2.338-17.97,5.039-35.881,5.025-54a171.991,171.991,0,0,0-3.3-36c-2.065-10.425-5.37-25.581-6.135-36-1.281-18.054.105-36.026,2.613-54,1.934-12.228,4.325-24.235,8.777-36h.426a7.679,7.679,0,0,0,7.747-6.729A7.463,7.463,0,0,0,76.477,414M59.316,455.782a9.7,9.7,0,0,1-19.4,0v-13.43a9.7,9.7,0,0,1,19.4,0Z" transform="translate(87.866 123.702)"/>
    <path class="dark" d="M61.863,608.676H59.625V569.505a13.43,13.43,0,0,0-26.861,0v39.171H30.526a4.476,4.476,0,0,0-4.476,4.476v37.306a4.476,4.476,0,0,0,4.476,4.476H61.863a4.476,4.476,0,0,0,4.476-4.476V613.152a4.476,4.476,0,0,0-4.476-4.476M46.195,650.458c-7,0-12.684-8.352-12.684-18.653s5.68-18.653,12.684-18.653S58.879,621.5,58.879,631.8s-5.68,18.653-12.684,18.653" transform="translate(91.287 168.899)"/>
  </g>
</svg>
